<svg width="48" height="33" viewBox="0 0 48 33" fill="none" xmlns="http://www.w3.org/2000/svg">
<g clip-path="url(#clip0_175_45)">
<path d="M38.7809 2.24121H9.19324C5.68321 2.24121 2.83777 5.08623 2.83777 8.59573V24.5087C2.83777 28.0182 5.68321 30.8632 9.19324 30.8632H38.7809C42.2909 30.8632 45.1363 28.0182 45.1363 24.5087V8.59573C45.1363 5.08623 42.2909 2.24121 38.7809 2.24121Z" fill="white" stroke="#D9D9D9" stroke-width="0.805687"/>
<path fill-rule="evenodd" clip-rule="evenodd" d="M11.6241 12.3125L7.87329 20.6105H12.3635L12.9202 19.2875H14.1926L14.7492 20.6105H19.6917V19.6007L20.1321 20.6105H22.6887L23.1292 19.5794V20.6105H33.4082L34.658 19.3218L35.8284 20.6105L41.1079 20.6211L37.3453 16.4847L41.1079 12.3125H35.9103L34.6936 13.5774L33.5601 12.3125H22.3779L21.4176 14.4543L20.4349 12.3125H15.954V13.2879L15.4556 12.3125H11.6241ZM26.9737 13.4909H32.8764L34.6817 15.4404L36.5453 13.4909H38.3507L35.6076 16.4835L38.3507 19.4417H36.4634L34.658 17.4695L32.785 19.4417H26.9737V13.4909ZM28.4313 15.8107V14.7237V14.7227H32.1144L33.7215 16.461L32.0432 18.2088H28.4313V17.0222H31.6515V15.8107H28.4313ZM12.4929 13.4909H14.6816L17.1695 19.1178V13.4909H19.5672L21.4888 17.5253L23.2598 13.4909H25.6455V19.4452H24.1939L24.182 14.7794L22.0657 19.4452H20.7671L18.6389 14.7794V19.4452H15.6525L15.0864 18.1103H12.0276L11.4626 19.444H9.86257L12.4929 13.4909ZM12.55 16.8763L13.5577 14.4983L14.5642 16.8763H12.55Z" fill="#434343"/>
<rect x="0.824707" y="0.227051" width="46.327" height="32.2275" fill="white" style="mix-blend-mode:saturation"/>
</g>
<defs>
<clipPath id="clip0_175_45">
<rect width="46.327" height="32.2275" fill="white" transform="translate(0.824707 0.227051)"/>
</clipPath>
</defs>
</svg>
