<svg width="35" height="9" viewBox="0 0 35 9" fill="none" xmlns="http://www.w3.org/2000/svg">
<path fill-rule="evenodd" clip-rule="evenodd" d="M4.6241 0.3125L0.873291 8.61047H5.36352L5.92016 7.28746H7.19256L7.74924 8.61047H12.6917V7.60071L13.1321 8.61047H15.6887L16.1292 7.57936V8.61047H26.4082L27.658 7.32179L28.8284 8.61047L34.1079 8.62115L30.3453 4.48467L34.1079 0.3125H28.9103L27.6936 1.5774L26.5601 0.3125H15.3779L14.4176 2.4543L13.4349 0.3125H8.95405V1.28793L8.4556 0.3125H4.6241ZM19.9737 1.49086H25.8764L27.6817 3.44041L29.5453 1.49086H31.3507L28.6076 4.48351L31.3507 7.44168H29.4634L27.658 5.46946L25.785 7.44168H19.9737V1.49086ZM21.4313 3.81065V2.7237V2.72267H25.1144L26.7215 4.46101L25.0432 6.20883H21.4313V5.02219H24.6515V3.81065H21.4313ZM5.49287 1.49086H7.68165L10.1695 7.11775V1.49086H12.5672L14.4888 5.5253L16.2598 1.49086H18.6455V7.44518H17.1939L17.182 2.77938L15.0657 7.44518H13.7671L11.6389 2.77938V7.44518H8.65255L8.08638 6.1103H5.02761L4.46263 7.44402H2.86257L5.49287 1.49086ZM5.54995 4.8763L6.55769 2.49831L7.56424 4.8763H5.54995Z" fill="#434343"/>
</svg>
