<svg width="47" height="33" viewBox="0 0 47 33" fill="none" xmlns="http://www.w3.org/2000/svg">
<g clip-path="url(#clip0_175_49)">
<path d="M38.1951 2.24121H8.60742C5.09739 2.24121 2.25195 5.08623 2.25195 8.59573V24.5087C2.25195 28.0182 5.09739 30.8632 8.60742 30.8632H38.1951C41.7051 30.8632 44.5505 28.0182 44.5505 24.5087V8.59573C44.5505 5.08623 41.7051 2.24121 38.1951 2.24121Z" fill="white" stroke="#D9D9D9" stroke-width="0.805687" stroke-miterlimit="16"/>
<path fill-rule="evenodd" clip-rule="evenodd" d="M11.7166 11.8871C12.3388 11.9403 12.961 11.5676 13.3498 11.0951C13.7322 10.6092 13.9849 9.95702 13.9201 9.2915C13.3692 9.31813 12.6888 9.66418 12.2999 10.15C11.9435 10.5693 11.6389 11.2482 11.7166 11.8871ZM19.1177 20.4592V10.0835H22.909C24.8662 10.0835 26.2337 11.4678 26.2337 13.491C26.2337 15.5143 24.8403 16.9119 22.8571 16.9119H20.6861V20.4592H19.1177ZM13.9136 12.0136C13.3655 11.9812 12.8653 12.1829 12.4614 12.3458C12.2014 12.4506 11.9813 12.5394 11.8138 12.5394C11.6258 12.5394 11.3966 12.4458 11.1392 12.3408C10.802 12.2033 10.4164 12.046 10.0121 12.0535C9.08536 12.0669 8.22341 12.6059 7.75027 13.4645C6.77819 15.1816 7.49754 17.7239 8.43724 19.1215C8.89739 19.8137 9.44827 20.5724 10.1741 20.5458C10.4935 20.5334 10.7232 20.4333 10.9609 20.3297C11.2346 20.2105 11.5189 20.0865 11.9628 20.0865C12.3914 20.0865 12.6633 20.2072 12.9243 20.3231C13.1724 20.4332 13.4107 20.5389 13.7645 20.5325C14.5163 20.5191 14.9894 19.8403 15.4495 19.1482C15.9461 18.4053 16.1643 17.6803 16.1974 17.5702L16.2013 17.5575C16.2005 17.5567 16.1944 17.5538 16.1835 17.5487C16.0175 17.4707 14.7488 16.8742 14.7366 15.2747C14.7244 13.9322 15.743 13.252 15.9033 13.1449C15.913 13.1384 15.9197 13.134 15.9226 13.1317C15.2746 12.1467 14.2635 12.0402 13.9136 12.0136ZM29.0983 20.5392C30.0834 20.5392 30.9972 20.0267 31.412 19.2148H31.4444V20.4593H32.8961V15.2947C32.8961 13.7973 31.7295 12.8323 29.9343 12.8323C28.2687 12.8323 27.0374 13.8106 26.992 15.155H28.4049C28.5215 14.5161 29.0983 14.0968 29.8889 14.0968C30.8481 14.0968 31.386 14.556 31.386 15.4012V15.9736L29.4288 16.0934C27.6077 16.2065 26.6226 16.9719 26.6226 18.303C26.6226 19.6474 27.6401 20.5392 29.0983 20.5392ZM29.5194 19.3078C28.6834 19.3078 28.152 18.8951 28.152 18.2628C28.152 17.6106 28.664 17.2313 29.6426 17.1714L31.386 17.0582V17.6439C31.386 18.6156 30.5823 19.3078 29.5194 19.3078ZM37.7112 20.865C37.0826 22.682 36.3633 23.2809 34.8338 23.2809C34.7171 23.2809 34.3283 23.2676 34.2375 23.241V21.9965C34.3347 22.0098 34.5745 22.0231 34.6977 22.0231C35.3911 22.0231 35.78 21.7236 36.0198 20.9449L36.1624 20.4857L33.5052 12.9319H35.1449L36.9919 19.0614H37.0243L38.8713 12.9319H40.4656L37.7112 20.865ZM20.686 11.4411H22.4941C23.8551 11.4411 24.6328 12.1865 24.6328 13.4976C24.6328 14.8088 23.8551 15.5608 22.4876 15.5608H20.686V11.4411Z" fill="#434343"/>
<rect x="0.236938" y="0.227051" width="46.327" height="32.2275" fill="black" style="mix-blend-mode:saturation"/>
</g>
<defs>
<clipPath id="clip0_175_49">
<rect width="46.327" height="32.2275" fill="white" transform="translate(0.236938 0.227051)"/>
</clipPath>
</defs>
</svg>
