<svg width="34" height="15" viewBox="0 0 34 15" fill="none" xmlns="http://www.w3.org/2000/svg">
<path fill-rule="evenodd" clip-rule="evenodd" d="M4.71665 2.88708C5.3388 2.94032 5.96096 2.56761 6.34979 2.09508C6.73219 1.60923 6.98493 0.957025 6.92011 0.291504C6.36924 0.318127 5.68878 0.664175 5.29991 1.15002C4.94346 1.5693 4.63885 2.24818 4.71665 2.88708ZM12.1177 11.4592V1.08346H15.909C17.8662 1.08346 19.2337 2.46779 19.2337 4.49103C19.2337 6.51426 17.8403 7.91186 15.8571 7.91186H13.6861V11.4592H12.1177ZM6.91355 3.01361C6.36547 2.98119 5.86533 3.18287 5.46136 3.34578C5.20138 3.45059 4.98126 3.53938 4.81379 3.53938C4.62583 3.53938 4.39662 3.44583 4.13921 3.34083C3.80198 3.20328 3.41642 3.04597 3.01209 3.05354C2.08536 3.06685 1.22341 3.60594 0.750274 4.46445C-0.221814 6.18157 0.497539 8.7239 1.43724 10.1215C1.89739 10.8137 2.44827 11.5724 3.17414 11.5458C3.49348 11.5334 3.72318 11.4333 3.96087 11.3297C4.23457 11.2105 4.51891 11.0865 4.96282 11.0865C5.39137 11.0865 5.66328 11.2072 5.92427 11.3231C6.17241 11.4332 6.41075 11.5389 6.76448 11.5325C7.51627 11.5191 7.9894 10.8403 8.4495 10.1482C8.94607 9.4053 9.16431 8.68027 9.19743 8.57023L9.20128 8.55753C9.2005 8.55669 9.19436 8.55384 9.18353 8.54875C9.01754 8.4707 7.74882 7.87421 7.73662 6.27475C7.72442 4.93217 8.74297 4.25198 8.90332 4.14488C8.91305 4.13839 8.91965 4.134 8.92263 4.13171C8.27456 3.14672 7.26353 3.04023 6.91355 3.01361ZM22.0983 11.5392C23.0834 11.5392 23.9972 11.0267 24.412 10.2148H24.4444V11.4593H25.8961V6.29474C25.8961 4.79728 24.7295 3.83228 22.9343 3.83228C21.2687 3.83228 20.0374 4.81059 19.992 6.15499H21.4049C21.5215 5.51609 22.0983 5.09681 22.8889 5.09681C23.8481 5.09681 24.386 5.55603 24.386 6.40123V6.97362L22.4288 7.09342C20.6077 7.20654 19.6226 7.97192 19.6226 9.30301C19.6226 10.6474 20.6401 11.5392 22.0983 11.5392ZM22.5194 10.3078C21.6834 10.3078 21.152 9.89511 21.152 9.26284C21.152 8.61063 21.664 8.23128 22.6426 8.17136L24.386 8.05824V8.64389C24.386 9.61557 23.5823 10.3078 22.5194 10.3078ZM30.7112 11.865C30.0826 13.682 29.3633 14.2809 27.8338 14.2809C27.7171 14.2809 27.3283 14.2676 27.2375 14.241V12.9965C27.3347 13.0098 27.5745 13.0231 27.6977 13.0231C28.3911 13.0231 28.78 12.7236 29.0198 11.9449L29.1624 11.4857L26.5052 3.93186H28.1449L29.9919 10.0614H30.0243L31.8713 3.93186H33.4656L30.7112 11.865ZM13.686 2.44112H15.4941C16.8551 2.44112 17.6328 3.18651 17.6328 4.49761C17.6328 5.80876 16.8551 6.56078 15.4876 6.56078H13.686V2.44112Z" fill="#434343"/>
</svg>
