<svg width="35" height="36" viewBox="0 0 35 36" fill="none" xmlns="http://www.w3.org/2000/svg">
<path d="M5.37266 1.63998C3.9784 1.63431 2.63575 1.9018 1.42285 2.49229C8.6144 4.56098 14.5749 8.30413 19.7685 13.0902C19.0864 9.96356 17.0059 7.11352 14.3425 5.03881C13.5808 5.60961 12.4472 5.62021 11.5291 5.09008C10.613 4.56098 10.0573 3.5764 10.1683 2.63338C8.58309 2.00194 6.94554 1.64641 5.37252 1.63998H5.37266ZM12.3197 2.09286C11.9632 2.10421 11.6692 2.26205 11.5314 2.50083C11.2961 2.90839 11.4938 3.59287 12.17 3.98341C12.8463 4.37395 13.537 4.20298 13.7724 3.79542C14.0075 3.38786 13.812 2.70126 13.1357 2.31065C12.8821 2.16437 12.6254 2.09819 12.3923 2.09286C12.3681 2.09218 12.3435 2.09204 12.3198 2.09286H12.3197ZM9.36314 7.14503L2.17043 19.61C2.57867 20.1879 3.06546 20.5868 3.88796 20.6396L11.0978 8.14485C10.5489 7.78187 9.96989 7.44909 9.36314 7.14503ZM22.6782 7.57228L21.4883 8.30919L20.7897 12.8658L23.4087 8.82414L22.6782 7.57228ZM13.0843 11.7914L11.5911 12.712L12.5738 13.8956L18.4634 13.5709L13.0843 11.7915V11.7914ZM27.4227 11.8383L27.1643 11.9173L14.7848 15.739L14.5284 15.8202L14.4047 16.0595L11.5121 21.7248L11.2643 22.2118L11.7066 22.5323L26.5085 33.2818L27.2007 33.7838L27.4848 32.9765L33.5389 15.7882L33.7205 15.2755L33.242 15.015L27.6601 11.9687L27.4229 11.8384L27.4227 11.8383ZM27.284 13.2184L31.6097 15.581L27.1001 16.9717L24.8273 13.9767L27.284 13.2184ZM23.5262 14.3783L25.8012 17.3733L19.0723 19.4496L19.2623 15.6941L23.5262 14.3783ZM17.9635 16.0957L17.7735 19.8514L13.1783 21.2699L15.4193 16.8819L17.9636 16.0957H17.9635ZM31.8063 16.8563L27.3438 29.5305L27.6215 18.1487L31.8063 16.8563H31.8063ZM26.3334 18.5461L26.0556 29.928L19.3009 20.7186L26.3334 18.5461H26.3334ZM18.0084 21.116L24.9341 30.5602L13.7445 22.434L18.0084 21.116V21.116Z" fill="#15274B"/>
</svg>
