<svg width="35" height="36" viewBox="0 0 35 36" fill="none" xmlns="http://www.w3.org/2000/svg">
<path d="M17.5 19.939C22.3325 19.939 26.25 16.0215 26.25 11.189C26.25 6.35647 22.3325 2.43896 17.5 2.43896C12.6675 2.43896 8.75 6.35647 8.75 11.189C8.75 16.0215 12.6675 19.939 17.5 19.939Z" stroke="#15274B" stroke-width="2" stroke-linecap="round" stroke-linejoin="round"/>
<path d="M9.81982 15.8252L3.28125 27.5953L9.21895 27.5666C9.40919 27.5656 9.59639 27.6143 9.76207 27.7078C9.92775 27.8013 10.0662 27.9364 10.1637 28.0998L13.125 33.0641L19.1632 19.7805" stroke="#15274B" stroke-width="2" stroke-linecap="round" stroke-linejoin="round"/>
<path d="M25.0564 15.564L31.7188 27.5952L25.7811 27.5665C25.5908 27.5655 25.4036 27.6142 25.2379 27.7077C25.0723 27.8012 24.9338 27.9363 24.8363 28.0997L21.875 33.064L17.5 23.439" stroke="#15274B" stroke-width="2" stroke-linecap="round" stroke-linejoin="round"/>
<path d="M17.5 15.564C19.9162 15.564 21.875 13.6052 21.875 11.189C21.875 8.77272 19.9162 6.81396 17.5 6.81396C15.0838 6.81396 13.125 8.77272 13.125 11.189C13.125 13.6052 15.0838 15.564 17.5 15.564Z" stroke="#15274B" stroke-width="2" stroke-linecap="round" stroke-linejoin="round"/>
</svg>
