<svg width="31" height="19" viewBox="0 0 31 19" fill="none" xmlns="http://www.w3.org/2000/svg">
<path fill-rule="evenodd" clip-rule="evenodd" d="M15.3598 16.6014C13.7826 17.9821 11.7367 18.8157 9.50111 18.8157C4.51279 18.8157 0.468994 14.6656 0.468994 9.54627C0.468994 4.42691 4.51279 0.276855 9.50111 0.276855C11.7367 0.276855 13.7826 1.11043 15.3598 2.49121C16.937 1.11043 18.9829 0.276902 21.2185 0.276902C26.2068 0.276902 30.2506 4.42696 30.2506 9.54632C30.2506 14.6657 26.2068 18.8157 21.2185 18.8157C18.9829 18.8157 16.937 17.9822 15.3598 16.6014Z" fill="#ED0006"/>
<path fill-rule="evenodd" clip-rule="evenodd" d="M15.359 16.6013C17.301 14.9012 18.5325 12.3713 18.5325 9.54627C18.5325 6.72123 17.301 4.19137 15.359 2.49116C16.9362 1.11038 18.9821 0.276855 21.2177 0.276855C26.206 0.276855 30.2498 4.42691 30.2498 9.54627C30.2498 14.6656 26.206 18.8157 21.2177 18.8157C18.9821 18.8157 16.9362 17.9821 15.359 16.6013Z" fill="#F9A000"/>
<path fill-rule="evenodd" clip-rule="evenodd" d="M15.3579 16.6018C17.2999 14.9016 18.5313 12.3718 18.5313 9.54672C18.5313 6.72172 17.2999 4.19186 15.3579 2.4917C13.4158 4.19186 12.1844 6.72172 12.1844 9.54672C12.1844 12.3718 13.4158 14.9016 15.3579 16.6018Z" fill="#FF5E00"/>
</svg>
