<svg width="35" height="36" viewBox="0 0 35 36" fill="none" xmlns="http://www.w3.org/2000/svg">
<path d="M30.3079 14.7544C30.0934 14.7906 29.9021 14.9104 29.776 15.0875C29.6498 15.2647 29.5992 15.4847 29.6352 15.6992C29.7479 16.3774 29.8046 17.0638 29.8047 17.7513C29.8071 20.8852 28.6089 23.9009 26.4565 26.1786C25.1676 24.1745 23.2411 22.6632 20.9877 21.8884C22.1113 21.14 22.9643 20.05 23.4205 18.7794C23.8767 17.5088 23.912 16.1251 23.521 14.8329C23.1301 13.5407 22.3337 12.4087 21.2497 11.6041C20.1656 10.7995 18.8514 10.3651 17.5014 10.3651C16.1514 10.3651 14.8372 10.7995 13.7532 11.6041C12.6691 12.4087 11.8728 13.5407 11.4818 14.8329C11.0909 16.1251 11.1261 17.5088 11.5823 18.7794C12.0385 20.05 12.8915 21.14 14.0151 21.8884C11.7618 22.6632 9.83523 24.1745 8.54634 26.1786C6.89929 24.4309 5.80003 22.2391 5.3842 19.8738C4.96837 17.5086 5.25418 15.0733 6.20635 12.8686C7.15852 10.6639 8.73538 8.78617 10.7423 7.46725C12.7493 6.14832 15.0985 5.44588 17.5 5.44661C18.1871 5.44675 18.873 5.50345 19.5508 5.61614C19.658 5.63634 19.7681 5.63498 19.8747 5.61213C19.9813 5.58929 20.0823 5.54542 20.1717 5.4831C20.2612 5.42078 20.3373 5.34125 20.3957 5.24916C20.454 5.15707 20.4934 5.05427 20.5116 4.94677C20.5298 4.83927 20.5264 4.72923 20.5015 4.62307C20.4767 4.51692 20.4309 4.41678 20.3669 4.32851C20.3029 4.24024 20.222 4.16562 20.1288 4.109C20.0356 4.05238 19.9321 4.01491 19.8243 3.99876C16.9118 3.50924 13.9191 3.95791 11.2783 5.28002C8.63742 6.60212 6.48504 8.72925 5.13185 11.3543C3.77866 13.9794 3.29469 16.9665 3.7498 19.8846C4.20492 22.8026 5.57556 25.5005 7.66387 27.5888C9.75218 29.6772 12.4501 31.0478 15.3681 31.5029C18.2862 31.958 21.2733 31.4741 23.8984 30.1209C26.5235 28.7677 28.6506 26.6153 29.9727 23.9744C31.2948 21.3336 31.7435 18.3409 31.254 15.4284C31.2362 15.322 31.1977 15.2201 31.1405 15.1286C31.0833 15.0371 31.0086 14.9577 30.9208 14.8951C30.8329 14.8325 30.7335 14.7879 30.6283 14.7637C30.5232 14.7396 30.4143 14.7364 30.3079 14.7544ZM12.8516 16.6575C12.8516 15.7382 13.1242 14.8394 13.635 14.075C14.1458 13.3106 14.8718 12.7148 15.7212 12.363C16.5706 12.0111 17.5052 11.9191 18.4069 12.0984C19.3086 12.2778 20.1369 12.7205 20.787 13.3706C21.4371 14.0207 21.8798 14.849 22.0592 15.7507C22.2385 16.6524 22.1465 17.587 21.7946 18.4364C21.4428 19.2858 20.847 20.0118 20.0826 20.5226C19.3181 21.0334 18.4194 21.306 17.5 21.306C16.2672 21.306 15.0849 20.8162 14.2131 19.9445C13.3414 19.0727 12.8516 17.8904 12.8516 16.6575ZM9.76724 27.3216C10.5695 25.9876 11.7032 24.8838 13.0582 24.1175C14.4132 23.3513 15.9434 22.9486 17.5 22.9486C19.0567 22.9486 20.5869 23.3513 21.9419 24.1175C23.2969 24.8838 24.4306 25.9876 25.2329 27.3216C23.0459 29.0951 20.3157 30.0629 17.5 30.0629C14.6844 30.0629 11.9542 29.0951 9.76724 27.3216ZM32.2985 6.29974L27.9235 10.6747C27.7697 10.8284 27.5612 10.9146 27.3438 10.9146C27.1264 10.9146 26.9179 10.8284 26.7641 10.6747L24.5766 8.48724C24.4317 8.33173 24.3528 8.12606 24.3566 7.91354C24.3603 7.70102 24.4464 7.49826 24.5967 7.34796C24.747 7.19767 24.9498 7.11158 25.1623 7.10783C25.3748 7.10408 25.5805 7.18296 25.736 7.32786L27.3438 8.93431L31.1391 5.14036C31.2946 4.99546 31.5003 4.91658 31.7128 4.92033C31.9253 4.92408 32.1281 5.01017 32.2784 5.16046C32.4287 5.31076 32.5148 5.51352 32.5185 5.72604C32.5223 5.93856 32.4434 6.14423 32.2985 6.29974Z" fill="#15274B" stroke="#15274B" stroke-width="0.5"/>
</svg>
