<svg width="10" height="18" viewBox="0 0 10 18" fill="none" xmlns="http://www.w3.org/2000/svg">
<path d="M2.31238 4.89936V0.445312H5.85009V1.297C5.85009 3.28641 4.26609 4.89936 2.31238 4.89936Z" fill="#292929"/>
<path d="M9.36853 6.24898L0.19454 7.55024L0.180054 5.23632L9.35404 3.93506L9.36853 6.24898Z" fill="#292929"/>
<path d="M9.38964 9.59127L0.215658 10.8925L0.201172 8.5786L9.37516 7.27734L9.38964 9.59127Z" fill="#292929"/>
<path d="M8.87639 16.5472C8.87639 16.5472 7.23634 17.1584 5.72477 16.9814C3.78554 16.7537 2.18958 15.3697 2.18958 13.3816V5.74268H5.46465V12.8031C5.46465 13.8087 6.51015 14.2044 7.54306 14.0133C7.90143 13.9472 8.93686 13.5791 8.93686 13.5791L8.87639 16.5472Z" fill="#292929"/>
</svg>
