<svg width="33" height="11" viewBox="0 0 33 11" fill="none" xmlns="http://www.w3.org/2000/svg">
<path fill-rule="evenodd" clip-rule="evenodd" d="M8.15728 10.3981H5.35073L3.2462 2.50144C3.1463 2.13815 2.9342 1.81701 2.62221 1.66569C1.84364 1.28533 0.985672 0.982624 0.0496826 0.829937V0.525921H4.57079C5.19473 0.525921 5.66273 0.982624 5.7407 1.513L6.83269 7.20915L9.63782 0.525921H12.3663L8.15728 10.3981ZM13.9263 10.3981H11.2757L13.4583 0.525921H16.1088L13.9263 10.3981ZM19.538 3.26093C19.616 2.72924 20.084 2.42523 20.6299 2.42523C21.4879 2.34888 22.4225 2.50153 23.2025 2.88057L23.6704 0.755043C22.8905 0.451027 22.0325 0.29834 21.2539 0.29834C18.6814 0.29834 16.8095 1.66582 16.8095 3.56363C16.8095 5.00741 18.1354 5.76551 19.0714 6.22221C20.084 6.6776 20.4739 6.98161 20.3959 7.43696C20.3959 8.12007 19.616 8.42408 18.8373 8.42408C17.9014 8.42408 16.9654 8.19636 16.1088 7.81601L15.6409 9.94285C16.5768 10.3219 17.5894 10.4746 18.5254 10.4746C21.4099 10.5496 23.2025 9.18349 23.2025 7.13294C23.2025 4.55076 19.538 4.39938 19.538 3.26093ZM32.4786 10.3981L30.3741 0.525921H28.1135C27.6455 0.525921 27.1775 0.829937 27.0215 1.28533L23.1244 10.3981H25.853L26.3976 8.95563H29.7501L30.0621 10.3981H32.4786ZM28.5035 3.18468L29.2821 6.90536H27.0995L28.5035 3.18468Z" fill="#172B85"/>
</svg>
